<svg xmlns="http://www.w3.org/2000/svg" viewBox="0 0 2400 2400" width="24" height="24">
	<path d="M1197.7 225.9c0.9-0.5 1.9-0.9 2.8-0.9s1.9 0.5 2.8 0.9l955.5 682.5c9.8 7 15.9 18.3 15.9 30.5v63.8l-811.9 678.4c-97 79.7-236.2 79.7-333.4 0L225 1002.3v-63.8c0-12.2 5.6-23.4 15.9-30.5L1197.7 225.9zM225 1294.4l663.3 546.7c180 147.7 439.2 147.7 618.8 0l663.3-546.7v843.8c0 20.6-16.9 37.5-37.5 37.5H262.5c-20.6 0-37.5-16.9-37.5-37.5v-843.8zM1200 0c-47.8 0-94.7 15-133.6 42.7L110.2 726.1C40.8 775.6 0 854.7 0 938.7v2138.8c0 144.8 117.7 262.5 262.5 262.5h1875c144.8 0 262.5-117.7 262.5-262.5V938.7c0-84.8-40.8-164.5-109.7-213.8L1333.6 42.7C1294.7 15 1247.8 0 1200 0z"/>
</svg>