<svg xmlns="http://www.w3.org/2000/svg" viewBox="0 0 2400 2400" width="24" height="24">
    <path d="M2142.9 1200h-128.6v-385.7C2014.3 365.4 1648.9 0 1200 0S385.7 365.4 385.7 814.3V1200H257.1c-141.9 0-257.1 115.2-257.1 257.1v1028.6c0 141.9 115.2 257.1 257.1 257.1h1885.7c141.9 0 257.1-115.2 257.1-257.1V1457.1c0-141.9-115.2-257.1-257.1-257.1zM771.4 814.3c0-236.1 192.4-428.6 428.6-428.6s428.6 192.4 428.6 428.6V1200H771.4V814.3z"/>
    <circle cx="1200" cy="1650" r="107.1"/>
    <rect x="1146.4" y="1757.1" width="107.1" height="385.7" rx="53.6"/>
</svg>