<svg xmlns="http://www.w3.org/2000/svg" viewBox="0 0 5800 5800" width="24" height="24">
	<path d="M2533 351c61-118 15-263-102-324s-263-15-324 102L1176 1920H320c-177 0-320 143-320 320s143 320 320 320L839 4635c71 285 327 485 621 485H4300c294 0 550-200 621-485L5440 2560c177 0 320-143 320-320s-143-320-320-320H4584L3653 129C3592 12 3447-34 3329 27s-163 206-102 324L4043 1920H1717L2533 351zM1920 3040v960c0 88-72 160-160 160s-160-72-160-160V3040c0-88 72-160 160-160s160 72 160 160zm960-160c88 0 160 72 160 160v960c0 88-72 160-160 160s-160-72-160-160V3040c0-88 72-160 160-160zm1280 160v960c0 88-72 160-160 160s-160-72-160-160V3040c0-88 72-160 160-160s160 72 160 160z"/>
</svg>